HIERARCHY
ROOT reference
{
  OFFSET 0 0 0
  CHANNELS 6 Xposition Yposition Zposition Zrotation Xrotation Yrotation
  JOINT Hips
  {
    OFFSET 24.0629 84.802 75.9527
    CHANNELS 6 Xposition Yposition Zposition Zrotation Xrotation Yrotation
    JOINT Spine
    {
      OFFSET 0 7.57377 0
      CHANNELS 6 Xposition Yposition Zposition Zrotation Xrotation Yrotation
      JOINT Spine1
      {
        OFFSET 0 21.6353 0
        CHANNELS 6 Xposition Yposition Zposition Zrotation Xrotation Yrotation
        JOINT Neck
        {
          OFFSET 0 21.5464 1.95876
          CHANNELS 6 Xposition Yposition Zposition Zrotation Xrotation Yrotation
          JOINT Head
          {
            OFFSET 0 12.9308 -1.84726
            CHANNELS 6 Xposition Yposition Zposition Zrotation Xrotation Yrotation
            End Site
            {
              OFFSET 0 23.0907 0
            }
          }
        }
        JOINT LeftShoulder
        {
          OFFSET 3.70822 19.5981 -0.368577
          CHANNELS 6 Xposition Yposition Zposition Zrotation Xrotation Yrotation
          JOINT LeftArm
          {
            OFFSET 11.1726 0 0
            CHANNELS 6 Xposition Yposition Zposition Zrotation Xrotation Yrotation
            JOINT LeftForeArm
            {
              OFFSET 28.6421 0 0
              CHANNELS 6 Xposition Yposition Zposition Zrotation Xrotation Yrotation
              JOINT LeftHand
              {
                OFFSET 23.9346 0 0
                CHANNELS 6 Xposition Yposition Zposition Zrotation Xrotation Yrotation
                End Site
                {
                  OFFSET 13.8545 0 0
                }
              }
            }
          }
        }
        JOINT RightShoulder
        {
          OFFSET -3.63664 19.5981 -0.368577
          CHANNELS 6 Xposition Yposition Zposition Zrotation Xrotation Yrotation
          JOINT RightArm
          {
            OFFSET -11.1726 0 0
            CHANNELS 6 Xposition Yposition Zposition Zrotation Xrotation Yrotation
            JOINT RightForeArm
            {
              OFFSET -28.6421 0 0
              CHANNELS 6 Xposition Yposition Zposition Zrotation Xrotation Yrotation
              JOINT RightHand
              {
                OFFSET -23.9346 0 0
                CHANNELS 6 Xposition Yposition Zposition Zrotation Xrotation Yrotation
                End Site
                {
                  OFFSET -13.8545 0 0
                }
              }
            }
          }
        }
      }
    }
    JOINT LeftUpLeg
    {
      OFFSET 9.2363 0 0
      CHANNELS 6 Xposition Yposition Zposition Zrotation Xrotation Yrotation
      JOINT LeftLeg
      {
        OFFSET 0 -40.7061 0
        CHANNELS 6 Xposition Yposition Zposition Zrotation Xrotation Yrotation
        JOINT LeftFoot
        {
          OFFSET 0 -40.9975 0
          CHANNELS 6 Xposition Yposition Zposition Zrotation Xrotation Yrotation
          JOINT LeftToeBase
          {
            OFFSET 0 -6.00359 13.8545
            CHANNELS 6 Xposition Yposition Zposition Zrotation Xrotation Yrotation
            End Site
            {
              OFFSET 0 0 3.69452
            }
          }
        }
      }
    }
    JOINT RightUpLeg
    {
      OFFSET -9.2363 0 0
      CHANNELS 6 Xposition Yposition Zposition Zrotation Xrotation Yrotation
      JOINT RightLeg
      {
        OFFSET 0 -40.7061 0
        CHANNELS 6 Xposition Yposition Zposition Zrotation Xrotation Yrotation
        JOINT RightFoot
        {
          OFFSET 0 -40.9975 0
          CHANNELS 6 Xposition Yposition Zposition Zrotation Xrotation Yrotation
          JOINT RightToeBase
          {
            OFFSET 0 -6.00359 13.8545
            CHANNELS 6 Xposition Yposition Zposition Zrotation Xrotation Yrotation
            End Site
            {
              OFFSET 0 0 3.69452
            }
          }
        }
      }
    }
  }
}
MOTION
Frames:	4
Frame Time:	0.004
0 0 0 0 0 -0 -13.0759 77.3151 -129.258 3.95721 3.20779 1.03164 0 7.57377 -2.84217e-014 6.05205 19.4579 1.9068 3.55271e-015 21.6353 2.84217e-014 3.12745 12.9581 2.5899 0 21.5464 1.95876 -10.5735 8.07379 3.01281 3.55271e-015 12.9308 -1.84726 -13.6376 1.43277 2.15665 3.70822 19.5981 -0.368577 7.07476 14.0184 -6.68872 11.1726 1.42109e-014 0 -36.8849 52.3001 -2.84158 28.6421 -1.42109e-014 0 7.9741 -10.4834 -74.6149 23.9346 0 -7.10543e-015 7.4622 -5.8872 -21.9029 -3.63664 19.5981 -0.368577 -8.50856 7.91055 -2.36529 -11.1726 0 0 11.0396 56.958 22.1648 -28.6421 0 0 -23.3436 -13.8387 66.4465 -23.9346 0 0 -18.5673 -0.208229 11.174 9.2363 0 0 8.52459 -36.8934 12.2751 3.55271e-015 -40.7061 -7.10543e-015 -0.0907061 22.1295 17.7014 -7.10543e-015 -40.9975 0 -11.5891 -8.22188 -15.7757 0 -6.00359 13.8545 -8.82781e-032 -3.18055e-015 -1.59028e-015 -9.2363 0 0 -22.8183 -17.2952 -14.0119 0 -40.7061 -1.42109e-014 6.66521 46.6036 9.06278 0 -40.9975 0 5.07861 -29.9306 -3.01207 7.10543e-015 -6.00359 13.8545 -2.48481e-017 7.45443e-017 -1.59028e-015 
0 0 0 0 0 -0 -12.925 77.0559 -128.948 3.79332 3.11368 0.828369 -8.88178e-016 7.57377 0 6.01392 19.4841 1.92296 2.66454e-015 21.6353 0 3.21964 13.0856 2.58679 0 21.5464 1.95876 -10.4909 7.79448 3.12473 -3.55271e-015 12.9308 -1.84726 -13.7662 1.62504 2.2998 3.70822 19.5981 -0.368577 7.09037 13.9366 -6.6955 11.1726 0 0 -37.4308 52.278 -2.42512 28.6421 1.42109e-014 0 8.07069 -10.5526 -74.5623 23.9346 0 7.10543e-015 7.25833 -5.85066 -21.9145 -3.63664 19.5981 -0.368577 -8.573 7.80028 -2.32395 -11.1726 0 2.84217e-014 11.0995 56.8985 22.141 -28.6421 1.42109e-014 0 -23.3003 -13.858 66.3253 -23.9346 0 0 -18.8517 -0.327784 11.2022 9.2363 -1.42109e-014 0 8.83154 -36.9244 12.5598 0 -40.7061 -7.10543e-015 -0.116642 22.3402 17.5943 0 -40.9975 1.42109e-014 -11.8116 -8.09511 -15.4255 0 -6.00359 13.8545 -7.95139e-016 0 -3.18055e-015 -9.2363 0 0 -22.8731 -17.3583 -14.0729 1.42109e-014 -40.7061 -1.42109e-014 6.64329 47.2275 9.01884 0 -40.9975 1.42109e-014 5.35701 -30.2908 -2.52652 7.10543e-015 -6.00359 13.8545 -2.79541e-017 4.96962e-017 3.18055e-015 
0 0 0 0 0 -0 -12.7797 76.7966 -128.646 3.60261 3.02323 0.640304 8.88178e-016 7.57377 2.84217e-014 6.00897 19.5403 1.93403 -8.88178e-016 21.6353 0 3.25254 13.1281 2.59506 0 21.5464 1.95876 -10.3117 7.83134 3.25017 3.55271e-015 12.9308 -1.84726 -13.9467 1.43245 2.36619 3.70822 19.5981 -0.368577 7.03072 13.9243 -6.58148 11.1726 0 -2.84217e-014 -37.552 52.2034 -2.23056 28.6421 1.42109e-014 1.42109e-014 7.92482 -10.4732 -74.7182 23.9346 0 -7.10543e-015 7.25416 -5.8589 -21.8402 -3.63664 19.5981 -0.368577 -8.5082 7.8188 -2.29069 -11.1726 0 0 11.2094 56.541 22.0005 -28.6421 1.42109e-014 1.42109e-014 -23.1734 -13.7633 66.3101 -23.9346 0 -3.55271e-015 -18.8146 -0.328621 11.259 9.2363 1.42109e-014 0 9.15111 -36.9788 12.8782 3.55271e-015 -40.7061 -7.10543e-015 -0.101913 22.602 17.5553 7.10543e-015 -40.9975 -1.42109e-014 -11.6288 -8.09189 -15.373 -3.55271e-015 -6.00359 13.8545 1.59028e-015 6.36111e-015 -0 -9.2363 -1.42109e-014 0 -22.9022 -17.4235 -14.0759 0 -40.7061 0 6.68918 47.8568 9.04246 7.10543e-015 -40.9975 0 5.57996 -30.6445 -2.22951 0 -6.00359 13.8545 5.74612e-017 6.21202e-018 1.59028e-015 
0 0 0 0 0 -0 -12.6418 76.5273 -128.335 3.40868 2.89616 0.470446 -1.77636e-015 7.57377 0 5.96419 19.6544 1.94191 2.66454e-015 21.6353 -2.84217e-014 3.31742 13.123 2.594 -7.10543e-015 21.5464 1.95876 -10.0811 7.92312 3.34367 -3.55271e-015 12.9308 -1.84726 -14.1548 1.18089 2.37883 3.70822 19.5981 -0.368577 7.10142 13.8705 -6.68741 11.1726 0 0 -38.2212 51.9152 -1.55066 28.6421 1.42109e-014 -1.42109e-014 7.89266 -10.335 -74.9398 23.9346 -2.84217e-014 0 6.99289 -5.66053 -21.7012 -3.63664 19.5981 -0.368577 -8.35896 7.87696 -2.32508 -11.1726 0 -2.84217e-014 10.9418 56.3721 22.1551 -28.6421 1.42109e-014 1.42109e-014 -23.1418 -13.8115 66.1512 -23.9346 -1.42109e-014 7.10543e-015 -19.1276 -0.475497 11.2371 9.2363 0 0 9.52101 -37.0403 13.1066 -3.55271e-015 -40.7061 7.10543e-015 -0.18513 22.9968 17.5971 7.10543e-015 -40.9975 0 -12.2534 -7.24986 -15.3686 -3.55271e-015 -6.00359 13.8545 1.59028e-015 6.36111e-015 -3.18055e-015 -9.2363 0 0 -22.9008 -17.4262 -14.109 0 -40.7061 0 6.64546 48.467 9.22226 0 -40.9975 0 5.72409 -31.0588 -2.02951 7.10543e-015 -6.00359 13.8545 -4.0912e-017 5.82377e-018 -1.59028e-015 
